<svg enable-background="new 0 0 32 32" height="512" viewBox="0 0 32 32" width="512"
	xmlns="http://www.w3.org/2000/svg">
	<g id="bg">
		<path fill="#DCEDC8" d="m26 32h-20c-3.314 0-6-2.686-6-6v-20c0-3.314 2.686-6 6-6h20c3.314 0 6 2.686 6 6v20c0 3.314-2.686 6-6 6z"/>
	</g>
	<g id="solid">
		<g>
			<path fill="#4CAF50" d="m22 9.845c0-1-.802-1.814-1.802-1.83l-8.365-.015c-1.012 0-1.833.821-1.833 1.833v12.333c0 1.013.821 1.834 1.833 1.834h8.333c1.013 0 1.834-.821 1.834-1.833zm-8.08 4.322h-.507c-.779 0-1.413-.634-1.413-1.413 0-.701.505-1.277 1.167-1.395v-.525c0-.276.224-.5.5-.5s.5.224.5.5v.5h.667c.276 0 .5.224.5.5s-.224.5-.5.5h-1.42c-.228 0-.413.186-.413.413 0 .234.186.42.413.42h.507c.779 0 1.413.634 1.413 1.413 0 .701-.505 1.277-1.167 1.395v.525c0 .276-.224.5-.5.5s-.5-.224-.5-.5v-.5h-.667c-.276 0-.5-.224-.5-.5s.224-.5.5-.5h1.42c.228 0 .413-.186.413-.413 0-.235-.185-.42-.413-.42zm5.58 7.833h-7c-.276 0-.5-.224-.5-.5s.224-.5.5-.5h7c.276 0 .5.224.5.5s-.224.5-.5.5zm0-2.667h-7c-.276 0-.5-.224-.5-.5s.224-.5.5-.5h7c.276 0 .5.224.5.5s-.224.5-.5.5zm0-2.666h-2.333c-.276 0-.5-.224-.5-.5s.224-.5.5-.5h2.333c.276 0 .5.224.5.5s-.224.5-.5.5zm.5-3.167c0 .276-.224.5-.5.5h-2.333c-.276 0-.5-.224-.5-.5s.224-.5.5-.5h2.333c.276 0 .5.224.5.5z"/>
		</g>
	</g>
</svg>